P2
24 7
15
1  2  4  5  6 15 15 15 15 15 15 15 15 15  0  0  0  0  0  0  0  0  0  0
0  3  3  3  3 15  0  7  7  7  7  0  0 11 11 11 11  0  0 15 15 15 15  0
0  3  0  0  0 15  0  7  0  0  0  0  0 11  0  0  0  0  0 15  0  0 15  0
0  3  3  3  0 15  0  7  7  7  0  0  0 11 11 11  0  0  0 15 15 15 15  0
0  3  0  0  8 15  0  7  0  0  0  0  0 11  0  0  0  0  0 15  0  0  0  0
0  3  0  0  0 15  0  7  7  7  7  0  0 11 11 11 11  0  0 15  0  0  0  0
0  0  0  0  9  0  0  0  0  0  5  5  5  5  5  5  5  5  5  0  0  0  0  1